<svg width="1021" height="96" viewBox="0 0 1021 96" fill="none" xmlns="http://www.w3.org/2000/svg">
<path d="M973.5 48.5H0.5" stroke="#E5ECF4" stroke-width="15"/>
<circle cx="213" cy="48" r="48" fill="#FCB72B"/>
<path fill-rule="evenodd" clip-rule="evenodd" d="M218.799 24H198.011C195.804 24.0028 194.015 25.791 194.013 27.9979V67.9765C194.015 70.1834 195.804 71.9716 198.011 71.9744H218V70.544C217.996 66.9421 219.062 63.4194 221.064 60.4246C221.276 60.1071 221.233 59.6848 220.964 59.4155L215.367 53.8185C214.85 53.3006 214.575 52.5884 214.612 51.8573C214.648 51.1259 214.992 50.4447 215.557 49.9805C216.647 49.1476 218.188 49.2665 219.137 50.2562L227.029 58.149L228.16 57.0184L222.797 51.6541V27.9979C222.795 25.791 221.006 24.0028 218.799 24ZM221.198 50.0549L220.267 49.1242C218.734 47.557 216.266 47.3937 214.539 48.7456C213.626 49.4964 213.072 50.5986 213.014 51.7802C212.956 52.9616 213.4 54.1123 214.236 54.9491L219.378 60.0906C217.46 63.1803 216.432 66.7392 216.406 70.3753H198.011C196.686 70.3753 195.612 69.301 195.612 67.9765V65.5778H215.601V63.9787H195.612V30.3966H221.198V50.0549ZM195.612 28.7974H221.198V27.9979C221.198 26.6734 220.124 25.5991 218.799 25.5991H198.011C196.686 25.5991 195.612 26.6734 195.612 27.9979V28.7974ZM225.155 42.6005L224.077 43.7791L228.98 48.2743C230.135 49.3363 230.793 50.8327 230.793 52.4009V71.9744H232.392V52.4009C232.39 50.3839 231.544 48.4606 230.059 47.0955L225.155 42.6005ZM198.81 38.3923H202.008C202.892 38.3923 203.608 37.6765 203.608 36.7932V33.5949C203.608 32.7116 202.892 31.9957 202.008 31.9957H198.81C197.927 31.9957 197.211 32.7116 197.211 33.5949V36.7932C197.211 37.6765 197.927 38.3923 198.81 38.3923ZM198.81 33.5949H202.008V36.7932H198.81V33.5949ZM210.004 38.3923H206.806C205.923 38.3923 205.207 37.6765 205.207 36.7932V33.5949C205.207 32.7116 205.923 31.9957 206.806 31.9957H210.004C210.887 31.9957 211.603 32.7116 211.603 33.5949V36.7932C211.603 37.6765 210.887 38.3923 210.004 38.3923ZM210.004 33.5949H206.806V36.7932H210.004V33.5949ZM214.802 38.3923H218C218.883 38.3923 219.599 37.6765 219.599 36.7932V33.5949C219.599 32.7116 218.883 31.9957 218 31.9957H214.802C213.918 31.9957 213.202 32.7116 213.202 33.5949V36.7932C213.202 37.6765 213.918 38.3923 214.802 38.3923ZM214.802 33.5949H218V36.7932H214.802V33.5949ZM202.008 46.3881H198.81C197.927 46.3881 197.211 45.6722 197.211 44.7889V41.5906C197.211 40.7073 197.927 39.9915 198.81 39.9915H202.008C202.892 39.9915 203.608 40.7073 203.608 41.5906V44.7889C203.608 45.6722 202.892 46.3881 202.008 46.3881ZM202.008 41.5906H198.81V44.7889H202.008V41.5906ZM198.81 54.3838H202.008C202.892 54.3838 203.608 53.668 203.608 52.7846V49.5864C203.608 48.703 202.892 47.9872 202.008 47.9872H198.81C197.927 47.9872 197.211 48.703 197.211 49.5864V52.7846C197.211 53.668 197.927 54.3838 198.81 54.3838ZM198.81 49.5864H202.008V52.7846H198.81V49.5864ZM210.004 46.3881H206.806C205.923 46.3881 205.207 45.6722 205.207 44.7889V41.5906C205.207 40.7073 205.923 39.9915 206.806 39.9915H210.004C210.887 39.9915 211.603 40.7073 211.603 41.5906V44.7889C211.603 45.6722 210.887 46.3881 210.004 46.3881ZM210.004 41.5906H206.806V44.7889H210.004V41.5906ZM214.802 46.3881H218C218.883 46.3881 219.599 45.6722 219.599 44.7889V41.5906C219.599 40.7073 218.883 39.9915 218 39.9915H214.802C213.918 39.9915 213.202 40.7073 213.202 41.5906V44.7889C213.202 45.6722 213.918 46.3881 214.802 46.3881ZM214.802 41.5906H218V44.7889H214.802V41.5906ZM210.004 54.3838H206.806C205.923 54.3838 205.207 53.668 205.207 52.7846V49.5864C205.207 48.703 205.923 47.9872 206.806 47.9872H210.004C210.887 47.9872 211.603 48.703 211.603 49.5864V52.7846C211.603 53.668 210.887 54.3838 210.004 54.3838ZM210.004 49.5864H206.806V52.7846H210.004V49.5864ZM198.81 62.3795H202.008C202.892 62.3795 203.608 61.6637 203.608 60.7804V57.5821C203.608 56.6988 202.892 55.9829 202.008 55.9829H198.81C197.927 55.9829 197.211 56.6988 197.211 57.5821V60.7804C197.211 61.6637 197.927 62.3795 198.81 62.3795ZM198.81 57.5821H202.008V60.7804H198.81V57.5821ZM210.004 62.3795H206.806C205.923 62.3795 205.207 61.6637 205.207 60.7804V57.5821C205.207 56.6988 205.923 55.9829 206.806 55.9829H210.004C210.887 55.9829 211.603 56.6988 211.603 57.5821V60.7804C211.603 61.6637 210.887 62.3795 210.004 62.3795ZM210.004 57.5821H206.806V60.7804H210.004V57.5821ZM209.205 67.177H207.605V68.7761H209.205V67.177Z" fill="#495567"/>
<circle cx="593" cy="48" r="48" fill="#FCB72B"/>
<path d="M590.07 62.301C589.852 62.301 589.639 62.3895 589.485 62.5433C589.332 62.697 589.243 62.9105 589.243 63.1279C589.243 63.3453 589.332 63.5588 589.485 63.7125C589.639 63.8663 589.852 63.9548 590.07 63.9548C590.287 63.9548 590.501 63.8663 590.655 63.7125C590.808 63.5588 590.897 63.3462 590.897 63.1279C590.897 62.9105 590.808 62.697 590.655 62.5433C590.501 62.3895 590.287 62.301 590.07 62.301Z" fill="black"/>
<path fill-rule="evenodd" clip-rule="evenodd" d="M606.539 48.4188L604.612 39.7131C605.132 39.6427 605.591 39.3781 605.913 38.9951C606.294 39.2331 606.744 39.3714 607.225 39.3714H608.879C609.335 39.3714 609.705 39.0012 609.705 38.5445V35.237C609.705 34.7803 609.335 34.4101 608.879 34.4101H607.225C606.729 34.4101 606.267 34.5568 605.88 34.8084C605.501 34.3804 604.948 34.1097 604.333 34.1097H599.452C598.575 34.1097 597.825 34.6598 597.526 35.4327H595.566C594.38 35.4327 593.416 36.3972 593.416 37.5826C593.416 38.768 594.38 39.7325 595.566 39.7325H599.822V41.3988C599.822 41.8555 600.192 42.2257 600.649 42.2257C601.106 42.2257 601.476 41.8555 601.476 41.3988V39.7325H602.923L604.998 49.1107L601.07 56.1075C600.641 56.8691 599.831 57.3423 598.957 57.3423H589.151C588.74 53.8995 585.805 51.2208 582.253 51.2208C580.682 51.2208 579.199 51.7328 577.966 52.7011L577.961 52.705C576.492 53.8601 575.569 55.5177 575.354 57.3423H573.656C573.764 51.3978 578.633 46.5955 584.602 46.5955H590.468C590.931 46.5955 591.307 46.9725 591.307 47.4356V54.8617C591.307 55.3184 591.678 55.6885 592.134 55.6885H596.534C598.329 55.6885 599.983 54.7124 600.851 53.1417C601.252 52.415 601.465 51.592 601.466 50.7622L601.47 48.0151C601.471 47.5584 601.101 47.1876 600.644 47.1869H600.643C600.187 47.1869 599.817 47.5564 599.816 48.0125L599.812 50.7603C599.812 51.3119 599.67 51.8591 599.403 52.342C598.827 53.3859 597.727 54.0345 596.534 54.0345H592.961V47.4353C592.961 47.0119 592.855 46.6126 592.668 46.2628C593.411 45.8336 593.912 45.0312 593.912 44.1136C593.912 42.7457 592.799 41.633 591.431 41.633H588.413C588.123 41.633 587.845 41.6834 587.586 41.7751V34.5219C587.586 33.154 586.473 32.0413 585.106 32.0413H579.771C575.904 32.0413 572.689 34.8804 572.098 38.5832C572.073 38.6621 572.059 38.7457 572.059 38.8326C572.059 38.8352 572.059 38.8378 572.059 38.8403C572.06 38.8427 572.06 38.8451 572.06 38.8475C572.02 39.164 572 39.486 572 39.8126V44.1139C572 45.3559 572.918 46.3875 574.11 46.5668L575.942 48.3978C573.516 50.6963 572 53.9463 572 57.5442V58.1692C572 58.6259 572.37 58.996 572.827 58.996H577.474C577.463 59.0493 577.457 59.1049 577.457 59.1614C577.457 60.3614 577.901 61.4592 578.633 62.3009H572.827C572.37 62.3009 572 62.6714 572 63.1278C572 63.5845 572.37 63.9547 572.827 63.9547H582.158L582.185 63.9556C582.208 63.9565 582.23 63.9573 582.253 63.9573C584.898 63.9573 587.049 61.8058 587.049 59.1614C587.049 59.1049 587.043 59.0493 587.033 58.996H598.957C600.259 58.996 601.476 58.372 602.238 57.3397H603.286C603.05 57.9127 602.925 58.5303 602.925 59.1614C602.925 60.3614 603.369 61.4592 604.1 62.3009H593.377C592.921 62.3009 592.55 62.6714 592.55 63.1278C592.55 63.5845 592.921 63.9547 593.377 63.9547H607.625C607.657 63.9557 607.689 63.9573 607.721 63.9573C610.365 63.9573 612.517 61.8058 612.517 59.1614C612.517 58.5303 612.392 57.9127 612.156 57.3397H613.509C613.966 57.3397 614.336 56.9696 614.336 56.5128C614.336 52.1482 610.865 48.5787 606.539 48.4188ZM588.413 43.2871H591.431C591.887 43.2871 592.258 43.6579 592.258 44.1139C592.258 44.5697 591.887 44.9408 591.431 44.9408H588.413C587.957 44.9408 587.586 44.5697 587.586 44.1139C587.586 43.6579 587.957 43.2871 588.413 43.2871ZM573.656 39.7109L573.656 39.7109C573.655 39.7448 573.654 39.7786 573.654 39.8126V44.1139C573.654 44.5697 574.025 44.9408 574.48 44.9408H574.481H585.105C585.561 44.9408 585.932 44.5697 585.932 44.1139V34.5222C585.932 34.0661 585.561 33.6953 585.105 33.6953H579.771C577.027 33.6953 574.699 35.5119 573.926 38.0061H582.706C583.162 38.0061 583.533 38.3762 583.533 38.8329C583.533 39.2896 583.162 39.6598 582.706 39.6598H573.658L573.656 39.7109ZM576.477 46.5946H578.369C577.972 46.8213 577.589 47.0697 577.22 47.3371L576.477 46.5946ZM582.285 62.3026C584.003 62.2854 585.395 60.8833 585.395 59.1614C585.395 59.1049 585.401 59.0493 585.412 58.996H579.095C579.105 59.0493 579.111 59.1049 579.111 59.1614C579.111 60.862 580.469 62.2502 582.158 62.3009H582.253C582.259 62.3009 582.265 62.3014 582.271 62.3018C582.276 62.3021 582.281 62.3024 582.285 62.3026ZM577.023 57.3423C577.227 56.0287 577.917 54.842 578.983 54.0051C578.985 54.0035 578.988 54.0012 578.99 53.9996C579.929 53.2638 581.057 52.8746 582.253 52.8746C584.891 52.8746 587.085 54.8142 587.483 57.3423H577.023ZM608.052 36.0639H607.225C606.769 36.0639 606.398 36.435 606.398 36.8907C606.398 37.3468 606.769 37.7176 607.225 37.7176H608.052V36.0639ZM595.07 37.5826C595.07 37.309 595.292 37.0865 595.566 37.0865H597.388V37.6679C597.388 37.8087 597.402 37.946 597.429 38.0787H595.566C595.292 38.0787 595.07 37.8562 595.07 37.5826ZM599.452 38.0787H600.649H604.333C604.56 38.0787 604.744 37.8946 604.744 37.6679V36.1743C604.744 35.9479 604.56 35.7635 604.333 35.7635H599.452C599.226 35.7635 599.041 35.9479 599.041 36.1743V37.6679C599.041 37.8946 599.226 38.0787 599.452 38.0787ZM610.863 59.1614C610.863 60.8833 609.471 62.2854 607.753 62.3026C607.751 62.3025 607.748 62.3024 607.746 62.3023C607.744 62.3021 607.742 62.302 607.739 62.3018C607.733 62.3014 607.727 62.301 607.721 62.301H607.626C605.937 62.2502 604.579 60.862 604.579 59.1614C604.579 58.5044 604.784 57.8694 605.161 57.3397H610.281C610.658 57.8694 610.863 58.5044 610.863 59.1614ZM606.356 50.07L603.203 55.686H612.629C612.227 52.5597 609.576 50.1291 606.356 50.07Z" fill="#495567"/>
<path d="M600.649 45.5334C601.106 45.5334 601.476 45.1632 601.476 44.7065C601.476 44.2498 601.106 43.8796 600.649 43.8796H600.646C600.189 43.8796 599.82 44.2498 599.82 44.7065C599.82 45.1632 600.192 45.5334 600.649 45.5334Z" fill="black"/>
<circle cx="973" cy="48" r="48" fill="#FCB72B"/>
<path fill-rule="evenodd" clip-rule="evenodd" d="M989.171 46H991C991.368 46 991.667 45.7015 991.667 45.3333V40C991.667 39.6318 991.368 39.3333 991 39.3333H984.745L983.667 37.176V34.6667C983.667 34.2985 983.368 34 983 34H979C978.632 34 978.333 34.2985 978.333 34.6667V37.3333C978.333 37.7015 978.632 38 979 38H982.588L983.667 40.1573V44C983.667 42.8954 982.771 42 981.667 42C980.562 42 979.667 42.8954 979.667 44V42.6667C979.667 42.2985 979.368 42 979 42H973.749L971.667 41.4793V30.6667C971.667 29.1939 970.473 28 969 28H966.333C964.861 28 963.667 29.1939 963.667 30.6667V38H960.333C959.229 38 958.333 38.8954 958.333 40V42H953.667C953.397 42.0001 953.154 42.1625 953.051 42.4116C952.948 42.6606 953.005 42.9473 953.195 43.138L954.724 44.6667L953.195 46.1953C953.005 46.386 952.948 46.6727 953.051 46.9218C953.154 47.1708 953.397 47.3333 953.667 47.3333H960.333C961.438 47.3333 962.333 46.4379 962.333 45.3333V43.3333H963.667V50H961.667C959.349 50.0027 957.384 51.706 957.053 54H955C954.632 54 954.333 54.2985 954.333 54.6667V57.3333C954.333 57.7015 954.632 58 955 58H957V59.3333H953.667C953.298 59.3333 953 59.6318 953 60V62.6667C953 63.0349 953.298 63.3333 953.667 63.3333H961C961 65.9107 963.089 68 965.667 68C968.244 68 970.333 65.9107 970.333 63.3333H982.333C982.333 65.9107 984.423 68 987 68C989.577 68 991.667 65.9107 991.667 63.3333H992.333C992.537 63.3335 992.729 63.2409 992.855 63.0818C992.982 62.9228 993.029 62.7147 992.983 62.5167L989.171 46ZM979.667 44C979.667 45.1046 980.562 46 981.667 46C982.771 46 983.667 45.1046 983.667 44V58H981.667V57.3333C981.667 56.2288 980.771 55.3333 979.667 55.3333V48C979.667 47.6318 979.368 47.3333 979 47.3333H971.667V45.5207L973.505 45.98C973.558 45.9933 973.612 46 973.667 46H979C979.368 46 979.667 45.7015 979.667 45.3333V44ZM982.333 36.6667H979.667V35.3333H982.333V36.6667ZM957 62V60.6667H954.333V62H957ZM957 56.6667H955.667V55.3333H957V56.6667ZM990.333 40.6667H989V44.6667H990.333V40.6667ZM985 40.6667H987.667V44.6667H985V40.6667ZM980.333 57.3333C980.333 56.9651 980.035 56.6667 979.667 56.6667H977V58H980.333V57.3333ZM973.505 43.3133C973.558 43.3266 973.612 43.3333 973.667 43.3333H978.333V44.6667H973.749L969 43.4793V42.1873L973.505 43.3133ZM966.333 29.3333C965.597 29.3333 965 29.9303 965 30.6667V33.3333H967V32C967 31.6318 967.298 31.3333 967.667 31.3333H970.333V30.6667C970.333 29.9303 969.736 29.3333 969 29.3333H966.333ZM965 34.6667H967.667C968.035 34.6667 968.333 34.3682 968.333 34V32.6667H970.333V34.1707L965 35.7707V34.6667ZM970.333 38.6667V35.5627L965 37.1627V38.6667H970.333ZM970.333 40V41.146L968.495 40.6867C968.296 40.6368 968.085 40.6814 967.923 40.8078C967.761 40.9341 967.667 41.128 967.667 41.3333V44C967.667 44.3058 967.875 44.5724 968.171 44.6467L970.333 45.1873V47.3333H965V40H970.333ZM978.333 55.3333V48.6667H965V50H976.333C976.702 50 977 50.2985 977 50.6667V55.3333H978.333ZM961 45.3333C961 45.7015 960.702 46 960.333 46H955.276L956.138 45.138C956.398 44.8777 956.398 44.4557 956.138 44.1953L955.276 43.3333H961V45.3333ZM959.667 40V42H963.667V39.3333H960.333C959.965 39.3333 959.667 39.6318 959.667 40ZM965.667 66.6667C963.827 66.6645 962.336 65.1734 962.333 63.3333H963.667C963.667 64.4379 964.562 65.3333 965.667 65.3333C966.771 65.3333 967.667 64.4379 967.667 63.3333H969C968.998 65.1734 967.507 66.6645 965.667 66.6667ZM965.667 64C966.035 64 966.333 63.7015 966.333 63.3333H965C965 63.7015 965.298 64 965.667 64ZM970.333 62H961V55.3333C961 54.9651 961.298 54.6667 961.667 54.6667H969.667C970.035 54.6667 970.333 54.9651 970.333 55.3333V62ZM971.667 62H973V54.6667C972.998 52.8266 971.507 51.3355 969.667 51.3333H961.667C959.827 51.3355 958.336 52.8266 958.333 54.6667V62H959.667V55.3333C959.667 54.2288 960.562 53.3333 961.667 53.3333H969.667C970.771 53.3333 971.667 54.2288 971.667 55.3333V62ZM972.927 51.3333H975.667V58H974.333V54.6667C974.333 53.4113 973.826 52.2091 972.927 51.3333ZM987 66.6667C985.16 66.6645 983.669 65.1734 983.667 63.3333H985C985 64.4379 985.895 65.3333 987 65.3333C988.105 65.3333 989 64.4379 989 63.3333H990.333C990.331 65.1734 988.84 66.6645 987 66.6667ZM987 64C987.368 64 987.667 63.7015 987.667 63.3333H986.333C986.333 63.7015 986.632 64 987 64ZM985 62V57.3333H986.333V56H985V46H987.8L991.492 62H985ZM974.333 62H983.667V59.3333H974.333V62ZM989 56H987.667V57.3333H989V56ZM962.333 56H963.667V57.3333H962.333V56ZM966.333 56H965V57.3333H966.333V56ZM967.667 56H969V57.3333H967.667V56ZM981.667 43.3333C982.035 43.3333 982.333 43.6318 982.333 44C982.333 44.3682 982.035 44.6667 981.667 44.6667C981.298 44.6667 981 44.3682 981 44C981 43.6318 981.298 43.3333 981.667 43.3333ZM953 32.6667H961.667V34H953V32.6667ZM962.333 35.3333H954.333V36.6667H962.333V35.3333Z" fill="#495567"/>
</svg>
